<svg xmlns="http://www.w3.org/2000/svg" style="display: none">
  <defs>
    <symbol id="question">
      <path fill-rule="evenodd" clip-rule="evenodd" d="M12 3C7.02944 3 3 7.02944 3 12C3 16.9706 7.02944 21 12 21C16.9706 21 21 16.9706 21 12C21 7.02944 16.9706 3 12 3ZM1 12C1 5.92487 5.92487 1 12 1C18.0751 1 23 5.92487 23 12C23 18.0751 18.0751 23 12 23C5.92487 23 1 18.0751 1 12Z" fill="#212429"/>
      <path fill-rule="evenodd" clip-rule="evenodd" d="M12.2582 8.02431C11.7927 7.94446 11.314 8.03194 10.9068 8.27126C10.4996 8.51057 10.1902 8.88628 10.0335 9.33184C9.85018 9.85282 9.27926 10.1266 8.75827 9.94333C8.23728 9.76005 7.96351 9.18914 8.14678 8.66815C8.46025 7.77704 9.07898 7.02562 9.89339 6.54699C10.7078 6.06836 11.6653 5.8934 12.5964 6.0531C13.5274 6.2128 14.3719 6.69685 14.9802 7.41952C15.5884 8.14204 15.9214 9.05647 15.9201 10.0009C15.9197 11.5313 14.7851 12.5419 13.9748 13.082C13.5392 13.3725 13.1107 13.586 12.795 13.7263C12.6358 13.7971 12.5016 13.8508 12.405 13.8876C12.3566 13.906 12.3174 13.9203 12.2888 13.9305L12.2541 13.9427L12.243 13.9464L12.2391 13.9477L12.2376 13.9483C12.2373 13.9484 12.2363 13.9487 11.9201 13L12.2363 13.9487C11.7124 14.1233 11.1461 13.8402 10.9714 13.3162C10.7969 12.7926 11.0796 12.2267 11.6028 12.0517L11.6016 12.0521C11.6017 12.0521 11.6018 12.052 11.6028 12.0517L11.6188 12.0461C11.6342 12.0406 11.6594 12.0314 11.693 12.0186C11.7605 11.9929 11.8607 11.9529 11.9827 11.8987C12.2296 11.789 12.551 11.6275 12.8654 11.4179C13.555 10.9582 13.9201 10.4691 13.9201 9.99999L13.9201 9.9985C13.9208 9.52618 13.7543 9.06886 13.4502 8.70752C13.146 8.34618 12.7238 8.10416 12.2582 8.02431Z" fill="#212429"/>
      <path fill-rule="evenodd" clip-rule="evenodd" d="M12 15C12.5523 15 13 15.4477 13 16V16.5C13 17.0523 12.5523 17.5 12 17.5C11.4477 17.5 11 17.0523 11 16.5V16C11 15.4477 11.4477 15 12 15Z" fill="#212429"/>
    </symbol>
    <symbol id="close">
      <path fill-rule="evenodd" clip-rule="evenodd" d="M18.7071 5.29289C19.0976 5.68342 19.0976 6.31658 18.7071 6.70711L6.70711 18.7071C6.31658 19.0976 5.68342 19.0976 5.29289 18.7071C4.90237 18.3166 4.90237 17.6834 5.29289 17.2929L17.2929 5.29289C17.6834 4.90237 18.3166 4.90237 18.7071 5.29289Z" fill="#212429"/>
      <path fill-rule="evenodd" clip-rule="evenodd" d="M5.29289 5.29289C5.68342 4.90237 6.31658 4.90237 6.70711 5.29289L18.7071 17.2929C19.0976 17.6834 19.0976 18.3166 18.7071 18.7071C18.3166 19.0976 17.6834 19.0976 17.2929 18.7071L5.29289 6.70711C4.90237 6.31658 4.90237 5.68342 5.29289 5.29289Z" fill="#212429"/>
    </symbol>
    <symbol id="arrow">
      <path fill-rule="evenodd" clip-rule="evenodd" d="M4.29289 8.29289C4.68342 7.90237 5.31658 7.90237 5.70711 8.29289L13 15.5858L20.2929 8.29289C20.6834 7.90237 21.3166 7.90237 21.7071 8.29289C22.0976 8.68342 22.0976 9.31658 21.7071 9.70711L13.7071 17.7071C13.3166 18.0976 12.6834 18.0976 12.2929 17.7071L4.29289 9.70711C3.90237 9.31658 3.90237 8.68342 4.29289 8.29289Z" fill="#212429"/>
    </symbol>
    <symbol id="check">
      <path d="M1.5 7.5L5 11L13 2" stroke="white" stroke-width="3" stroke-linecap="round" stroke-linejoin="round"/>
    </symbol>
    <symbol id="circle">
      <path d="M47.7727 11.2727H49.1364C49.0739 9.51705 47.4545 8.20455 45.2045 8.20455C42.9773 8.20455 41.2273 9.5 41.2273 11.4545C41.2273 13.0227 42.3636 13.9545 44.1818 14.4773L45.6136 14.8864C46.8409 15.2273 47.9318 15.6591 47.9318 16.8182C47.9318 18.0909 46.7045 18.9318 45.0909 18.9318C43.7045 18.9318 42.4773 18.3182 42.3636 17H40.9091C41.0455 18.9091 42.5909 20.2045 45.0909 20.2045C47.7727 20.2045 49.2955 18.7273 49.2955 16.8409C49.2955 14.6591 47.2273 13.9545 46.0227 13.6364L44.8409 13.3182C43.9773 13.0909 42.5909 12.6364 42.5909 11.3864C42.5909 10.2727 43.6136 9.45455 45.1591 9.45455C46.5682 9.45455 47.6364 10.125 47.7727 11.2727ZM55.0895 20.1818C56.8622 20.1818 58.1577 19.2955 58.5668 17.9773L57.2713 17.6136C56.9304 18.5227 56.1406 18.9773 55.0895 18.9773C53.5156 18.9773 52.4304 17.9602 52.3679 16.0909H58.7031V15.5227C58.7031 12.2727 56.7713 11.1591 54.9531 11.1591C52.5895 11.1591 51.0213 13.0227 51.0213 15.7045C51.0213 18.3864 52.5668 20.1818 55.0895 20.1818ZM52.3679 14.9318C52.4588 13.5739 53.419 12.3636 54.9531 12.3636C56.4077 12.3636 57.3395 13.4545 57.3395 14.9318H52.3679ZM62.0838 8.36364H60.7429V20H62.0838V8.36364ZM68.1989 20.1818C69.9716 20.1818 71.267 19.2955 71.6761 17.9773L70.3807 17.6136C70.0398 18.5227 69.25 18.9773 68.1989 18.9773C66.625 18.9773 65.5398 17.9602 65.4773 16.0909H71.8125V15.5227C71.8125 12.2727 69.8807 11.1591 68.0625 11.1591C65.6989 11.1591 64.1307 13.0227 64.1307 15.7045C64.1307 18.3864 65.6761 20.1818 68.1989 20.1818ZM65.4773 14.9318C65.5682 13.5739 66.5284 12.3636 68.0625 12.3636C69.517 12.3636 70.4489 13.4545 70.4489 14.9318H65.4773ZM77.3977 20.1818C79.3295 20.1818 80.6023 19 80.8295 17.4545H79.4886C79.2386 18.4091 78.4432 18.9773 77.3977 18.9773C75.8068 18.9773 74.7841 17.6591 74.7841 15.6364C74.7841 13.6591 75.8295 12.3636 77.3977 12.3636C78.5795 12.3636 79.2841 13.0909 79.4886 13.8864H80.8295C80.6023 12.25 79.2159 11.1591 77.375 11.1591C75.0114 11.1591 73.4432 13.0227 73.4432 15.6818C73.4432 18.2955 74.9432 20.1818 77.3977 20.1818ZM86.5852 11.2727H84.7216V9.18182H83.3807V11.2727H82.0625V12.4091H83.3807V17.8636C83.3807 19.3864 84.608 20.1136 85.7443 20.1136C86.2443 20.1136 86.5625 20.0227 86.7443 19.9545L86.4716 18.75C86.358 18.7727 86.1761 18.8182 85.8807 18.8182C85.2898 18.8182 84.7216 18.6364 84.7216 17.5V12.4091H86.5852V11.2727ZM92.1676 20.1818C93.9403 20.1818 95.2358 19.2955 95.6449 17.9773L94.3494 17.6136C94.0085 18.5227 93.2188 18.9773 92.1676 18.9773C90.5938 18.9773 89.5085 17.9602 89.446 16.0909H95.7812V15.5227C95.7812 12.2727 93.8494 11.1591 92.0312 11.1591C89.6676 11.1591 88.0994 13.0227 88.0994 15.7045C88.0994 18.3864 89.6449 20.1818 92.1676 20.1818ZM89.446 14.9318C89.5369 13.5739 90.4972 12.3636 92.0312 12.3636C93.4858 12.3636 94.4176 13.4545 94.4176 14.9318H89.446ZM101.116 20.1818C102.798 20.1818 103.366 19.1364 103.662 18.6591H103.821V20H105.116V8.36364H103.776V12.6591H103.662C103.366 12.2045 102.844 11.1591 101.139 11.1591C98.9347 11.1591 97.4119 12.9091 97.4119 15.6591C97.4119 18.4318 98.9347 20.1818 101.116 20.1818ZM101.298 18.9773C99.6165 18.9773 98.7528 17.5 98.7528 15.6364C98.7528 13.7955 99.5938 12.3636 101.298 12.3636C102.935 12.3636 103.798 13.6818 103.798 15.6364C103.798 17.6136 102.912 18.9773 101.298 18.9773Z" fill="#495057"/>
      <rect x="1" y="1" width="26" height="26" rx="13" stroke="#4263EB" stroke-width="2"/>
      <rect x="5" y="5" width="18" height="18" rx="9" fill="#4263EB"/>
    </symbol>
    <symbol id="logo">
      <rect y="1" width="30" height="30" fill="#212429"/>
      <rect x="38" width="32" height="32" rx="16" fill="#212429"/>
      <path d="M78 0L110 32H78V0Z" fill="#212429"/>
    </symbol>
    <symbol id="success">
      <path fill-rule="evenodd" clip-rule="evenodd" d="M15.663 3.77342C13.8902 2.98352 11.9096 2.78783 10.0166 3.21555C8.12351 3.64326 6.41942 4.67145 5.15845 6.14678C3.89749 7.62211 3.14721 9.46552 3.01951 11.4021C2.89181 13.3387 3.39354 15.2646 4.44987 16.8928C5.50619 18.5209 7.06051 19.764 8.88102 20.4365C10.7015 21.1091 12.6907 21.1752 14.5518 20.6249C16.413 20.0746 18.0464 18.9375 19.2084 17.3831C20.3705 15.8286 20.9989 13.9402 21 11.9994V11.08C21 10.5277 21.4477 10.08 22 10.08C22.5523 10.08 23 10.5277 23 11.08V12C22.9986 14.3721 22.2306 16.6807 20.8103 18.5806C19.39 20.4804 17.3936 21.8703 15.1189 22.5428C12.8442 23.2154 10.413 23.1346 8.18792 22.3126C5.96285 21.4906 4.06312 19.9713 2.77206 17.9813C1.48099 15.9914 0.86777 13.6374 1.02384 11.2705C1.17992 8.90358 2.09693 6.65052 3.63811 4.84734C5.17929 3.04416 7.26206 1.78748 9.57581 1.26472C11.8896 0.74196 14.3103 0.981129 16.477 1.94656C16.9815 2.17134 17.2082 2.76252 16.9834 3.26699C16.7587 3.77146 16.1675 3.9982 15.663 3.77342Z" fill="#374FC7"/>
      <path fill-rule="evenodd" clip-rule="evenodd" d="M22.7068 3.29254C23.0975 3.68287 23.0978 4.31603 22.7075 4.70675L12.7075 14.7168C12.52 14.9044 12.2656 15.0099 12.0002 15.01C11.7349 15.0101 11.4805 14.9047 11.2929 14.7171L8.29289 11.7171C7.90237 11.3266 7.90237 10.6934 8.29289 10.3029C8.68342 9.91237 9.31658 9.91237 9.70711 10.3029L11.9996 12.5954L21.2925 3.29325C21.6829 2.90253 22.316 2.90221 22.7068 3.29254Z" fill="#374FC7"/>
    </symbol>
    <symbol id="error">
      <path fill-rule="evenodd" clip-rule="evenodd" d="M10.5282 2.28309C10.9775 2.03014 11.4844 1.89725 12 1.89725C12.5156 1.89725 13.0225 2.03014 13.4718 2.28309C13.9211 2.53604 14.2976 2.90052 14.565 3.34136L14.5679 3.34611L23.0379 17.4861L23.046 17.4999C23.308 17.9536 23.4466 18.4679 23.448 18.9917C23.4495 19.5155 23.3138 20.0306 23.0544 20.4857C22.795 20.9408 22.4209 21.3201 21.9694 21.5857C21.518 21.8514 21.0048 21.9942 20.481 21.9999L20.47 22.0001L3.51903 22C2.99522 21.9942 2.48206 21.8514 2.03059 21.5857C1.57912 21.3201 1.20507 20.9408 0.94567 20.4857C0.686267 20.0306 0.550547 19.5155 0.552014 18.9917C0.55348 18.4679 0.692083 17.9536 0.95403 17.4999L0.962153 17.4861L9.43215 3.34612L10.29 3.85998L9.43502 3.34136C9.70243 2.90052 10.0789 2.53604 10.5282 2.28309ZM11.1462 4.37663L2.68271 18.5058C2.59753 18.6556 2.55249 18.8249 2.55201 18.9973C2.55152 19.1719 2.59676 19.3436 2.68322 19.4953C2.76969 19.647 2.89438 19.7734 3.04487 19.862C3.19404 19.9498 3.36342 19.9973 3.53642 20H20.4636C20.6366 19.9973 20.806 19.9498 20.9552 19.862C21.1057 19.7734 21.2303 19.647 21.3168 19.4953C21.4033 19.3436 21.4485 19.1719 21.448 18.9973C21.4476 18.8249 21.4025 18.6557 21.3174 18.5059L12.855 4.37862C12.8546 4.37796 12.8542 4.37729 12.8538 4.37663C12.7648 4.23058 12.6397 4.1098 12.4906 4.02586C12.3409 3.94154 12.1719 3.89725 12 3.89725C11.8282 3.89725 11.6592 3.94154 11.5094 4.02586C11.3603 4.1098 11.2353 4.23058 11.1462 4.37663Z" fill="#F03D3E"/>
      <path fill-rule="evenodd" clip-rule="evenodd" d="M12 8C12.5523 8 13 8.44772 13 9V13C13 13.5523 12.5523 14 12 14C11.4477 14 11 13.5523 11 13V9C11 8.44772 11.4477 8 12 8Z" fill="#F03D3E"/>
      <path fill-rule="evenodd" clip-rule="evenodd" d="M12 15C12.5523 15 13 15.4477 13 16V16.5C13 17.0523 12.5523 17.5 12 17.5C11.4477 17.5 11 17.0523 11 16.5V16C11 15.4477 11.4477 15 12 15Z" fill="#F03D3E"/>
    </symbol>
  </defs>
</svg>
